<svg width="21" height="21" viewBox="0 0 21 21" fill="none" xmlns="http://www.w3.org/2000/svg">
<path d="M11.6033 1.55406C11.1708 0.13835 9.16664 0.138356 8.73418 1.55406L7.30015 6.24854C7.23591 6.45883 7.04184 6.60247 6.82196 6.60247H2.05621C0.625627 6.60247 0.00703049 8.41459 1.13899 9.28936L5.0986 12.3493C5.26313 12.4765 5.33179 12.6922 5.27105 12.891L3.784 17.7591C3.35681 19.1575 4.97879 20.2783 6.13578 19.3842L9.863 16.5038C10.0431 16.3646 10.2944 16.3646 10.4745 16.5038L14.2017 19.3842C15.3587 20.2783 16.9807 19.1575 16.5535 17.7591L15.0664 12.891C15.0057 12.6922 15.0744 12.4765 15.2389 12.3493L19.1985 9.28936C20.3305 8.41459 19.7119 6.60247 18.2813 6.60247H13.5155C13.2957 6.60247 13.1016 6.45883 13.0373 6.24854L11.6033 1.55406Z" fill="#F5F5F5" stroke="#D9C29E"/>
</svg>
