<svg width="22" height="21" viewBox="0 0 22 21" fill="none" xmlns="http://www.w3.org/2000/svg">
<path d="M12.4002 1.55406C11.9677 0.13835 9.96352 0.138356 9.53106 1.55406L8.09702 6.24854C8.03278 6.45883 7.83871 6.60247 7.61883 6.60247H2.85309C1.4225 6.60247 0.803905 8.41459 1.93587 9.28936L5.89547 12.3493C6.06 12.4765 6.12867 12.6922 6.06792 12.891L4.58087 17.7591C4.15369 19.1575 5.77567 20.2783 6.93265 19.3842L10.6599 16.5038C10.84 16.3646 11.0913 16.3646 11.2714 16.5038L14.9986 19.3842C16.1556 20.2783 17.7775 19.1575 17.3504 17.7591L15.8633 12.891C15.8026 12.6922 15.8712 12.4765 16.0358 12.3493L19.9954 9.28936C21.1273 8.41459 20.5087 6.60247 19.0782 6.60247H14.3124C14.0925 6.60247 13.8985 6.45883 13.8342 6.24854L12.4002 1.55406Z" fill="#D9C29E" stroke="#D9C29E"/>
</svg>
