<svg width="201" height="200" viewBox="0 0 201 200" fill="none" xmlns="http://www.w3.org/2000/svg">
<path d="M100.084 0C44.842 0 0.0839844 44.7581 0.0839844 100C0.0839844 155.242 44.842 200 100.084 200C155.326 200 200.084 155.242 200.084 100C200.084 44.7581 155.326 0 100.084 0ZM100.084 38.7097C119.681 38.7097 135.568 54.5968 135.568 74.1936C135.568 93.7903 119.681 109.677 100.084 109.677C80.4872 109.677 64.6001 93.7903 64.6001 74.1936C64.6001 54.5968 80.4872 38.7097 100.084 38.7097ZM100.084 177.419C76.4146 177.419 55.205 166.694 41.0114 149.919C48.592 135.645 63.4308 125.806 80.7291 125.806C81.6969 125.806 82.6646 125.968 83.592 126.25C88.834 127.944 94.3179 129.032 100.084 129.032C105.85 129.032 111.374 127.944 116.576 126.25C117.503 125.968 118.471 125.806 119.439 125.806C136.737 125.806 151.576 135.645 159.157 149.919C144.963 166.694 123.753 177.419 100.084 177.419Z" fill="#FF6542"/>
</svg>
