<svg width="70" height="70" viewBox="0 0 70 70" fill="none" xmlns="http://www.w3.org/2000/svg">
<path d="M39.9722 50.2011L40.3185 50.5281L39.9722 50.2011L41.6239 48.4522C42.1326 47.9136 42.1336 47.03 41.626 46.4901L30.4031 34.5511L30.0964 34.2248L30.4031 33.8986L41.626 21.9597C42.1336 21.4197 42.1326 20.5361 41.6239 19.9975L39.9722 18.2487C39.4772 17.7246 38.6866 17.7246 38.1917 18.2487L38.1917 18.2487L24.0306 33.2427L24.0306 33.2427C23.5211 33.7821 23.521 34.6675 24.0306 35.2071C24.0306 35.2071 24.0306 35.2071 24.0306 35.2071L38.1917 50.2011C38.6867 50.7252 39.4773 50.7251 39.9722 50.2011Z" fill="white" stroke="white" stroke-width="0.952717"/>
<circle cx="35" cy="35" r="32" transform="matrix(-1 0 0 1 70 0)" stroke="white" stroke-width="6"/>
</svg>
