<svg width="25" height="23" viewBox="0 0 25 23" fill="none" xmlns="http://www.w3.org/2000/svg">
<path d="M8.12504 15.189C8.03168 15.189 7.93832 15.2041 7.84926 15.236C7.34301 15.4177 6.81059 15.5342 6.25005 15.5342C5.6895 15.5342 5.15708 15.4177 4.65044 15.236C4.56138 15.2041 4.46841 15.189 4.37505 15.189C1.95084 15.189 -0.0128275 17.3672 6.31045e-05 20.0486C0.00553184 21.1817 0.848889 22.093 1.87506 22.093H10.625C11.6512 22.093 12.4946 21.1817 12.5 20.0486C12.5129 17.3672 10.5493 15.189 8.12504 15.189ZM6.25005 13.8081C8.32114 13.8081 10 11.9535 10 9.6657C10 7.37786 8.32114 5.52326 6.25005 5.52326C4.17896 5.52326 2.50006 7.37786 2.50006 9.6657C2.50006 11.9535 4.17896 13.8081 6.25005 13.8081ZM23.125 0H8.12504C7.09106 0 6.25005 0.960097 6.25005 2.13983V4.14244C7.16489 4.14244 8.01176 4.435 8.75004 4.91052V2.76163H22.5V15.189H20V12.4273H15V15.189H12.0219C12.768 15.9091 13.3157 16.8602 13.5723 17.9506H23.125C24.159 17.9506 25 16.9905 25 15.8108V2.13983C25 0.960097 24.159 0 23.125 0Z" fill="white"/>
</svg>
