<svg width="39" height="38" viewBox="0 0 39 38" fill="none" xmlns="http://www.w3.org/2000/svg">
<g filter="url(#filter0_d_1089_193)">
<path d="M18.0377 1.04358L14.376 8.80044L6.18354 10.0483C4.71438 10.271 4.1256 12.1633 5.19102 13.2472L11.1181 19.2816L9.71624 27.8059C9.46391 29.3467 11.0172 30.5009 12.3181 29.7803L19.6471 25.7554L26.976 29.7803C28.277 30.495 29.8302 29.3467 29.5779 27.8059L28.176 19.2816L34.1031 13.2472C35.1685 12.1633 34.5798 10.271 33.1106 10.0483L24.9181 8.80044L21.2564 1.04358C20.6003 -0.339059 18.6994 -0.356635 18.0377 1.04358Z" fill="white"/>
<path d="M15.053 9.70885L14.5266 9.78903L6.33412 11.0369L6.33336 11.037C5.7307 11.1284 5.36828 12.001 5.90416 12.5461L5.90444 12.5464L11.8315 18.5808L12.1872 18.943L12.1049 19.4438L10.7031 27.9675C10.7031 27.9676 10.7031 27.9676 10.7031 27.9677C10.5701 28.7804 11.3477 29.1746 11.8336 28.9055L11.8367 28.9037L19.1657 24.8789L19.6471 24.6145L20.1284 24.8789L27.4574 28.9037L27.4576 28.9038C27.9505 29.1747 28.7229 28.7736 28.5911 27.9677C28.5911 27.9676 28.591 27.9676 28.591 27.9675L27.1893 19.4438L27.1069 18.943L27.4626 18.5808L33.3897 12.5464L33.39 12.5461C33.9259 12.001 33.5634 11.1284 32.9608 11.037L32.96 11.0369L24.7675 9.78903L24.2411 9.70885L24.0138 9.22732L20.353 1.47228C20.3528 1.47203 20.3527 1.47179 20.3526 1.47154C20.0524 0.840259 19.2376 0.845751 18.942 1.47047L15.053 9.70885ZM15.053 9.70885L15.2804 9.22732L18.9419 1.47084L15.053 9.70885Z" stroke="#D9C29E" stroke-width="2"/>
</g>
<defs>
<filter id="filter0_d_1089_193" x="0.647064" y="0" width="38" height="38" filterUnits="userSpaceOnUse" color-interpolation-filters="sRGB">
<feFlood flood-opacity="0" result="BackgroundImageFix"/>
<feColorMatrix in="SourceAlpha" type="matrix" values="0 0 0 0 0 0 0 0 0 0 0 0 0 0 0 0 0 0 127 0" result="hardAlpha"/>
<feOffset dy="4"/>
<feGaussianBlur stdDeviation="2"/>
<feComposite in2="hardAlpha" operator="out"/>
<feColorMatrix type="matrix" values="0 0 0 0 0 0 0 0 0 0 0 0 0 0 0 0 0 0 0.25 0"/>
<feBlend mode="normal" in2="BackgroundImageFix" result="effect1_dropShadow_1089_193"/>
<feBlend mode="normal" in="SourceGraphic" in2="effect1_dropShadow_1089_193" result="shape"/>
</filter>
</defs>
</svg>
