<svg width="20" height="16" viewBox="0 0 20 16" fill="none" xmlns="http://www.w3.org/2000/svg">
<path d="M19.6211 5.06319C19.7734 4.93941 20 5.05521 20 5.25087V13.4167C20 14.4748 19.1602 15.3333 18.125 15.3333H1.875C0.839844 15.3333 0 14.4748 0 13.4167V5.25486C0 5.05521 0.222656 4.9434 0.378906 5.06719C1.25391 5.76198 2.41406 6.64444 6.39844 9.6033C7.22266 10.2182 8.61328 11.512 10 11.504C11.3945 11.516 12.8125 10.1943 13.6055 9.6033C17.5898 6.64444 18.7461 5.75799 19.6211 5.06319ZM10 10.2222C10.9062 10.2382 12.2109 9.05625 12.8672 8.5691C18.0508 4.72378 18.4453 4.38837 19.6406 3.43003C19.8672 3.25035 20 2.97083 20 2.67535V1.91667C20 0.858507 19.1602 0 18.125 0H1.875C0.839844 0 0 0.858507 0 1.91667V2.67535C0 2.97083 0.132812 3.24635 0.359375 3.43003C1.55469 4.38437 1.94922 4.72378 7.13281 8.5691C7.78906 9.05625 9.09375 10.2382 10 10.2222Z" fill="#783BA2"/>
</svg>
