<svg width="62" height="62" viewBox="0 0 62 62" fill="none" xmlns="http://www.w3.org/2000/svg">
<g filter="url(#filter0_d_5405_461)">
<circle cx="31" cy="29" r="25" fill="white"/>
</g>
<path d="M38.7659 22.2333L38.7653 22.2329C36.3079 20.3434 32.7395 20.7108 30.5501 22.7489C30.55 22.749 30.55 22.749 30.5499 22.7491L30.5003 22.7952L30.4513 22.7497C30.4511 22.7495 30.4509 22.7493 30.4507 22.7491C28.2643 20.7102 24.6921 20.3438 22.2352 22.2329L22.2346 22.2333C19.4164 24.4036 19.2569 28.3501 21.7953 30.7177L21.7957 30.7181L28.9763 37.4077L28.9765 37.4079C29.8243 38.1974 31.1726 38.1974 32.0204 37.4079L32.0206 37.4077L39.2009 30.7183C41.7437 28.3507 41.5843 24.4037 38.7659 22.2333Z" fill="#783BA2" stroke="#783BA2" stroke-width="2"/>
<defs>
<filter id="filter0_d_5405_461" x="0" y="0" width="62" height="62" filterUnits="userSpaceOnUse" color-interpolation-filters="sRGB">
<feFlood flood-opacity="0" result="BackgroundImageFix"/>
<feColorMatrix in="SourceAlpha" type="matrix" values="0 0 0 0 0 0 0 0 0 0 0 0 0 0 0 0 0 0 127 0" result="hardAlpha"/>
<feMorphology radius="2" operator="dilate" in="SourceAlpha" result="effect1_dropShadow_5405_461"/>
<feOffset dy="2"/>
<feGaussianBlur stdDeviation="2"/>
<feComposite in2="hardAlpha" operator="out"/>
<feColorMatrix type="matrix" values="0 0 0 0 0 0 0 0 0 0 0 0 0 0 0 0 0 0 0.25 0"/>
<feBlend mode="normal" in2="BackgroundImageFix" result="effect1_dropShadow_5405_461"/>
<feBlend mode="normal" in="SourceGraphic" in2="effect1_dropShadow_5405_461" result="shape"/>
</filter>
</defs>
</svg>
