<svg width="36" height="24" viewBox="0 0 36 24" fill="none" xmlns="http://www.w3.org/2000/svg">
<path d="M21.6283 10.4193C21.7318 10.9973 21.8058 11.5753 21.8058 12.325C21.8058 18.8702 17.6494 23.5096 11.3929 23.5096C5.40252 23.5096 0.551025 18.386 0.551025 12.0595C0.551025 5.73301 5.40252 0.609375 11.3929 0.609375C14.3215 0.609375 16.762 1.73405 18.6553 3.60859L15.7118 6.59219C14.9131 5.77988 13.508 4.82702 11.3929 4.82702C7.69512 4.82702 4.6777 8.06054 4.6777 12.0595C4.6777 16.0585 7.69512 19.292 11.3929 19.292C15.6822 19.292 17.2945 16.0272 17.5459 14.3557H11.3929V10.4192H21.6283V10.4193ZM32.0978 10.8031V7.47945H28.9355V10.8031H25.7884V14.1428H28.9355V17.4665H32.0978V14.1428H35.2449V10.8031H32.0978Z" fill="white"/>
</svg>
