<svg width="22" height="16" viewBox="0 0 22 16" fill="none" xmlns="http://www.w3.org/2000/svg">
<path d="M7.52797 8C9.81985 8 11.6773 6.20937 11.6773 4C11.6773 1.79063 9.81985 0 7.52797 0C5.2361 0 3.37862 1.79063 3.37862 4C3.37862 6.20937 5.2361 8 7.52797 8ZM10.4325 9H9.89116C9.17151 9.31875 8.37081 9.5 7.52797 9.5C6.68514 9.5 5.88768 9.31875 5.16479 9H4.62343C2.2181 9 0.266602 10.8813 0.266602 13.2V14.5C0.266602 15.3281 0.963564 16 1.82261 16H13.2333C14.0924 16 14.7893 15.3281 14.7893 14.5V13.2C14.7893 10.8813 12.8379 9 10.4325 9ZM20.9032 4.9875L20.002 4.10938C19.8529 3.9625 19.6097 3.9625 19.4574 4.10625L16.0601 7.35625L14.5851 5.925C14.436 5.77813 14.1929 5.77812 14.0405 5.92188L13.1296 6.79375C12.9772 6.9375 12.9772 7.17188 13.1264 7.31875L15.7748 9.89062C15.9239 10.0375 16.1671 10.0375 16.3194 9.89375L20.8999 5.5125C21.049 5.36562 21.0523 5.13125 20.9032 4.9875Z" fill="#783BA2"/>
</svg>
